
        <svg xmlns="http://www.w3.org/2000/svg" xmlns:xlink="http://www.w3.org/1999/xlink" version="1.1" width="3210.5263157894738" 
        height="1537.4933630758221" viewBox="0 0 3210.5263157894738 1537.4933630758221">
			
			<g transform="scale(10.526315789473685) translate(10, 10)">
				<defs id="SvgjsDefs3850"></defs><g id="SvgjsG3851" featureKey="symbolFeature-0" transform="matrix(0.2562754036519293,0,0,0.2562754036519293,-33.11076181747717,-2.588381674645794)" fill="#aacfd0"><title xmlns="http://www.w3.org/2000/svg">dgital design 2</title><path xmlns="http://www.w3.org/2000/svg" d="M382.3,115.7c0.8-1.8,0.7-3.9-0.3-5.6l-59.3-97.1c-1.1-1.8-3-2.9-5.1-2.9s-4,1.1-5.1,2.9L253.2,110c-1,1.7-1.2,3.8-0.3,5.6  l30.4,65.8v17.1c-3.1,0.2-5.6,2.8-5.6,6v34.2c0,3.3,2.7,6,6,6h26.8v44.2c0,13.3-10.8,24.1-24.1,24.1h-0.2c-6.4,0-12.5-2.5-17-7.1  s-7.1-10.6-7.1-17v-1.4c0-19.9-16.2-36.1-36.1-36.1c-19.8,0-36,16.1-36.1,35.9l-0.1,27h-10.6c-13.4,0-26,5.3-35.4,14.7  c-9.5,9.5-14.6,22.1-14.6,35.5V452c0,27.6,22.5,50,50.1,50c0,0,0.1,0,0.1,0H212c27.6,0,50.1-22.6,50-50.2v-87.4  c0-27.6-22.5-50-50.1-50c0,0-0.1,0-0.1,0h-10.1l0.1-27c0.1-13.2,10.9-24,24.1-24c13.3,0,24.1,10.8,24.1,24.1v1.4  c0,9.6,3.8,18.7,10.6,25.5c6.8,6.8,15.9,10.6,25.5,10.6h0.2c19.9,0,36.1-16.2,36.1-36.1v-44.2h29.2c3.3,0,6-2.7,6-6v-34.2  c0-3.2-2.5-5.8-5.6-6v-17.1L382.3,115.7z M152.2,337.6c7.2-7.2,16.8-11.2,26.9-11.2h10.5v46.5h-48.6v-8.4  C141.1,354.4,145.1,344.8,152.2,337.6z M212,490h-32.7c0,0,0,0-0.1,0c-21,0-38.1-17.1-38.1-38.1v-67H250v66.9  C250,472.8,233,490,212,490z M211.8,326.4C211.9,326.4,211.9,326.4,211.8,326.4c10.2,0,19.8,4,27,11.1c7.2,7.2,11.2,16.8,11.2,26.9  v8.5h-48.3v-46.5H211.8z M295.3,198.6v-12.4H340v12.4H295.3z M317.6,103.9c6.6,0,12,5.4,12,12s-5.4,12-12,12s-12-5.4-12-12  S311,103.9,317.6,103.9z M311.6,37.4v55.3c-10.4,2.7-18,12.1-18,23.3c0,13.3,10.8,24,24,24s24-10.8,24-24c0-11.2-7.7-20.6-18-23.3  V37.4l46.5,76.2l-28,60.6h-49l-28-60.6L311.6,37.4z M345.6,232.7h-56v-22.2h56V232.7z"></path></g><g id="SvgjsG3852" featureKey="nameFeature-0" transform="matrix(0.636537274523697,0,0,0.636537274523697,82.96308144998326,48.798854048848526)" fill="#34495e"><path d="M31.24 38.28 c0.16 0.24 0.2 0.56 0.16 0.96 c-0.08 0.48 -0.44 0.8 -0.92 0.8 l-4.4 0 c-0.36 0 -0.64 -0.08 -0.84 -0.24 c-0.16 -0.12 -0.28 -0.32 -0.44 -0.56 l-7.24 -12.84 l-8.44 0 l0 12.24 c0 1.24 -0.76 1.4 -1.12 1.4 l-3.64 0 c-0.36 0 -1.16 -0.16 -1.16 -1.4 l0 -16.8 c0 -1.24 0.8 -1.36 1.16 -1.36 l17.4 0 c1.04 0 1.72 -0.28 2.12 -0.88 c0.44 -0.6 0.64 -1.56 0.64 -2.88 s-0.2 -2.28 -0.64 -2.88 c-0.4 -0.6 -1.08 -0.88 -2.12 -0.88 l-17.4 0 c-0.36 0 -1.16 -0.12 -1.16 -1.36 l0 -3.16 c0 -1.28 0.8 -1.4 1.16 -1.4 l18.44 0 c2.72 0 4.72 0.84 5.92 2.56 c1.08 1.64 1.68 3.96 1.76 7 l0 0.24 c-0.08 3.08 -0.68 5.4 -1.76 7 c-1 1.36 -2.52 2.2 -4.48 2.44 z M63.879999999999995 32.84 c0.36 0 1.16 0.12 1.16 1.36 l0 4.4 c0 1.24 -0.8 1.36 -1.16 1.36 l-14.2 0 c-1.76 0 -3.24 -0.2 -4.48 -0.68 c-1.28 -0.44 -2.32 -1.16 -3.12 -2.2 c-0.76 -1 -1.36 -2.32 -1.72 -3.92 c-0.28 -1.32 -0.48 -2.92 -0.52 -4.8 l0 -0.2 l0.08 -5.04 c0.08 -0.36 0.24 -0.68 0.44 -1 c0.56 -1 1.56 -1.6 2.72 -1.68 l20.64 -0.04 c0.32 0 1.12 0.12 1.12 1.36 l0 3.16 c0 1.24 -0.8 1.4 -1.12 1.4 l-17.88 0 c-0.04 0 -0.08 2.88 -0.08 2.88 l0.08 0.68 c0.12 0.76 0.36 1.36 0.68 1.8 c0.32 0.4 0.68 0.68 1.2 0.88 c0.56 0.16 1.24 0.28 2.08 0.28 l14.08 0 z M63.92 6.960000000000001 c0.32 0 1.12 0.16 1.12 1.4 l0 3.16 c0 1.24 -0.8 1.4 -1.12 1.4 l-23 -0.04 c-0.32 0 -1.08 -0.12 -1.08 -1.36 l0 -3.12 c0 -1.28 0.76 -1.44 1.08 -1.44 l23 0 z M94.88000000000001 10.760000000000002 l11.24 27.72 c0.16 0.36 0.2 0.72 0.12 0.96 c-0.08 0.2 -0.24 0.6 -0.88 0.6 l-4.28 0 c-0.56 0 -0.96 -0.32 -1.16 -0.88 l-9.92 -24.76 l-0.04 -0.08 l-0.16 0 s-0.04 0.04 -0.08 0.12 l-5.12 12.96 l4.96 0 c0.52 0 0.96 0.32 1.16 0.8 l1.44 3.56 c0.12 0.4 0.08 0.84 -0.16 1.16 c-0.2 0.36 -0.6 0.56 -1.04 0.56 l-8.76 0 l-2.28 5.72 c-0.2 0.52 -0.6 0.84 -1.12 0.84 l-4.4 0 c-0.64 0 -0.84 -0.36 -0.88 -0.6 c-0.08 -0.24 -0.04 -0.6 0.08 -0.96 l11.16 -27.72 c0.56 -1.44 1.16 -2.4 1.76 -2.92 c0.16 -0.12 0.36 -0.28 0.6 -0.4 c0.8 -0.56 1.76 -0.84 2.76 -0.84 c2.2 0 4.12 1.48 4.76 3.56 z M139.16000000000003 7.039999999999999 c0.32 0 1.12 0.16 1.12 1.4 l0 3.08 c0 1.28 -0.8 1.44 -1.12 1.44 l-14.36 0 c-0.84 0 -1.56 0.08 -2.08 0.28 c-0.52 0.16 -0.88 0.44 -1.2 0.88 s-0.52 1 -0.68 1.76 c-0.12 0.76 -0.2 1.76 -0.2 2.96 l0 9.32 c0 1.2 0.08 2.2 0.2 3 c0.16 0.76 0.36 1.36 0.68 1.76 c0.32 0.44 0.68 0.72 1.2 0.88 c0.52 0.2 1.24 0.28 2.08 0.28 l14.36 0 c0.32 0 1.12 0.16 1.12 1.4 l0 3.16 c0 1.24 -0.8 1.4 -1.12 1.4 l-14.56 0 c-1.76 0 -3.28 -0.24 -4.52 -0.68 s-2.28 -1.2 -3.08 -2.2 c-0.8 -1.04 -1.4 -2.36 -1.76 -3.92 c-0.36 -1.6 -0.52 -3.52 -0.52 -5.76 l0 -7.92 c0 -2.2 0.16 -4.12 0.52 -5.68 c0.36 -1.6 0.96 -2.92 1.76 -3.92 c0.76 -1 1.8 -1.76 3.08 -2.24 c1.24 -0.44 2.76 -0.68 4.52 -0.68 l14.56 0 z M176.32000000000002 7.039999999999999 c0.36 0 1.16 0.12 1.16 1.36 l0 3.12 c0 1.32 -0.8 1.44 -1.16 1.44 l-10.28 0 l0 25.68 c0 1.24 -0.76 1.36 -1.12 1.36 l-3.68 0 c-0.32 0 -1.12 -0.12 -1.12 -1.36 l0 -25.68 l-10.28 0 c-0.36 0 -1.16 -0.12 -1.16 -1.44 l0 -3.12 c0 -1.24 0.8 -1.36 1.16 -1.36 l26.48 0 z M186.88 24.64 c-0.6 0 -1 -0.4 -1 -1.08 l0 -2.32 c0 -0.68 0.4 -1.08 1 -1.08 l12.28 0 c0.64 0 1 0.4 1 1.08 l0 2.32 c0 0.68 -0.36 1.08 -1 1.08 l-12.28 0 z M231.64000000000001 34.08 c0.36 0 1.12 0.16 1.12 1.4 l0 3.16 c0 1.24 -0.76 1.4 -1.12 1.4 l-13.2 0 c-1.76 0 -3.28 -0.24 -4.48 -0.68 c-1.28 -0.44 -2.32 -1.2 -3.12 -2.24 c-0.8 -1 -1.36 -2.32 -1.72 -3.92 c-0.36 -1.56 -0.56 -3.48 -0.56 -5.72 l0 -19.04 c0 -1.28 0.8 -1.4 1.16 -1.4 l3.68 0 c0.32 0 1.12 0.12 1.12 1.4 l0 19.72 c0 1.2 0.04 2.2 0.2 3 c0.12 0.72 0.36 1.32 0.68 1.76 c0.28 0.44 0.68 0.72 1.16 0.88 c0.56 0.2 1.24 0.28 2.08 0.28 l13 0 z M245.96 7.039999999999999 c0.32 0 1.12 0.16 1.12 1.4 l0 30.2 c0 1.24 -0.8 1.4 -1.12 1.4 l-3.68 0 c-0.32 0 -1.12 -0.16 -1.12 -1.4 l0 -30.2 c0 -1.24 0.8 -1.4 1.12 -1.4 l3.68 0 z M283.16 17.24 c0 2.48 -0.64 4.44 -2 5.8 c1.44 1.32 2.2 3.32 2.2 5.96 l0 2.68 c0 1.24 -0.12 2.4 -0.32 3.4 c-0.24 1.04 -0.56 1.92 -1.08 2.64 c-0.48 0.76 -1.16 1.32 -2 1.72 c-0.8 0.4 -1.8 0.6 -3 0.6 l-18 0 c-1.24 0 -2.4 -0.64 -3.04 -1.72 c-0.2 -0.36 -0.36 -0.8 -0.44 -1.24 l0.04 -27.32 c0.08 -0.32 0.24 -0.68 0.4 -1 c0.6 -0.96 1.6 -1.6 2.76 -1.68 l0 -0.04 l17.68 0 c2.44 0 4.2 0.68 5.24 2.04 c1.04 1.32 1.56 3.32 1.56 5.92 l0 2.24 z M261.36 33.88 c0 0.16 0.04 0.2 0.04 0.2 l13.92 0 c0.8 0 1.36 -0.16 1.68 -0.52 s0.48 -1 0.48 -1.92 l0 -2.72 c0 -0.88 -0.2 -1.52 -0.52 -1.92 c-0.36 -0.4 -1.04 -0.64 -2.08 -0.64 l-7.76 0 c-0.72 0 -1.32 -0.56 -1.32 -1.32 l0 -3.28 c0 -0.72 0.6 -1.32 1.32 -1.32 l7.76 0 c1.04 0 1.72 -0.2 2.04 -0.56 c0.36 -0.4 0.52 -1 0.52 -1.76 l0 -2.76 c0 -0.84 -0.16 -1.48 -0.48 -1.84 s-0.88 -0.56 -1.64 -0.56 l-13.88 0 c-0.04 0 -0.08 0.08 -0.08 0.24 l0 20.68 z M311.08 20.32 c2.08 0 3.68 0.76 4.76 2.2 c1.04 1.44 1.56 3.48 1.56 6.08 l0 3.52 c0 2.32 -0.52 4.2 -1.52 5.64 c-1.04 1.48 -2.68 2.24 -4.88 2.24 l-18.04 0 c-0.36 0 -1.16 -0.12 -1.16 -1.36 l0 -3.2 c0 -1.24 0.8 -1.36 1.16 -1.36 l17.08 0 c0.68 0 0.92 -0.28 1.08 -0.52 c0.24 -0.4 0.36 -0.96 0.36 -1.68 l0 -3.44 c0 -1.96 -0.8 -2.2 -1.4 -2.2 l-12 0 c-1.68 0 -3.52 -0.24 -4.76 -1.88 c-1 -1.4 -1.56 -3.64 -1.56 -6.4 l0 -3.04 c0 -2.32 0.52 -4.24 1.56 -5.68 c1.04 -1.48 2.64 -2.2 4.84 -2.2 l17.24 0 c0.32 0 1.12 0.12 1.12 1.36 l0 3.2 c0 1.24 -0.8 1.36 -1.12 1.36 l-16.28 0 c-0.68 0 -0.92 0.28 -1.08 0.52 c-0.2 0.4 -0.32 0.96 -0.32 1.68 l0 2.96 c0 1.96 0.76 2.2 1.36 2.2 l12 0 z"></path></g>
			</g>
		</svg>
	